<svg width="558" height="724" viewBox="0 0 558 724" fill="none" xmlns="http://www.w3.org/2000/svg">
<path d="M558 558L558 95.6141C558 42.8079 515.192 4.01628e-05 462.386 3.32381e-05L95.614 -1.48582e-05C42.8078 -2.17829e-05 2.4644e-05 42.8078 1.77193e-05 95.614L-4.29153e-05 558L558 558Z" fill="#8759F2"/>
<path d="M117 558C117 466.321 191.545 392 283.5 392C375.455 392 450 466.321 450 558L117 558Z" fill="#FF3E80"/>
<path d="M117 558C117 649.679 191.545 724 283.5 724C375.455 724 450 649.679 450 558L117 558Z" fill="#FFC300"/>
<path d="M279 333C324.84 333 362 295.34 362 249.5V249.5C362 203.66 324.84 166 279 166V166C233.16 166 196 203.66 196 249.5V249.5C196 295.34 233.16 333 279 333V333Z" fill="#F5F5F7"/>
</svg>
